<?xml version="1.0" standalone="no"?>
<!DOCTYPE svg PUBLIC "-//W3C//DTD SVG 20010904//EN"
 "http://www.w3.org/TR/2001/REC-SVG-20010904/DTD/svg10.dtd">
<svg version="1.0" xmlns="http://www.w3.org/2000/svg"
 width="1280.000000pt" height="663.000000pt" viewBox="0 0 1280.000000 663.000000"
 preserveAspectRatio="xMidYMid meet">
<metadata>
Created by potrace 1.15, written by Peter Selinger 2001-2017
</metadata>
<g transform="translate(0.000000,663.000000) scale(0.100000,-0.100000)"
fill="#000000" stroke="none">
<path d="M6980 6611 c-148 -24 -187 -33 -296 -72 -242 -85 -449 -235 -549
-398 -21 -33 -39 -61 -41 -61 -1 0 -26 71 -55 158 -28 86 -53 158 -54 159 -1
2 -127 -8 -281 -22 -153 -13 -331 -29 -394 -35 -63 -5 -127 -10 -141 -10 -25
0 -30 -9 -90 -174 l-63 -174 -110 -17 c-602 -91 -959 -207 -1114 -362 -243
-244 -543 -950 -842 -1981 -22 -77 -68 -140 -121 -167 -41 -22 -460 -37 -914
-34 -679 4 -661 4 -750 -20 -110 -31 -182 -72 -256 -147 -75 -74 -127 -157
-168 -263 -46 -120 -62 -212 -68 -386 -5 -159 -5 -160 -42 -235 -46 -96 -52
-178 -23 -301 11 -46 23 -111 27 -144 11 -105 35 -236 67 -363 16 -69 26 -128
22 -132 -5 -5 -45 -13 -89 -19 -201 -28 -285 -91 -285 -216 0 -62 19 -103 68
-147 69 -62 126 -74 332 -69 262 7 1028 5 1335 -2 149 -4 293 -7 321 -7 l51 0
6 -107 c9 -166 41 -293 113 -452 42 -92 128 -221 190 -284 26 -26 44 -50 41
-54 -3 -3 -316 -1 -694 5 -692 10 -1894 6 -2033 -6 -63 -6 -75 -10 -75 -25 0
-17 51 -18 1205 -22 663 -2 1349 -7 1526 -10 294 -6 322 -5 338 10 31 32 3 45
-93 45 l-86 0 -70 73 c-199 206 -307 478 -309 778 l-1 135 31 40 c56 70 68
103 70 186 1 71 4 82 42 145 101 170 267 325 437 409 152 74 252 97 425 98
141 0 201 -9 335 -51 l80 -25 269 -266 c221 -220 273 -277 293 -321 28 -62 64
-205 64 -253 0 -18 2 -59 5 -91 7 -73 -10 -204 -42 -313 -50 -173 -145 -334
-275 -466 l-77 -78 -80 0 c-81 0 -109 -12 -93 -38 6 -11 163 -11 822 -2 518 7
1048 8 1459 3 355 -4 965 -6 1355 -3 702 5 710 5 710 25 0 23 -45 33 -151 34
l-61 1 -85 88 c-134 140 -219 282 -268 452 -28 96 -38 302 -20 404 58 326 259
597 545 732 124 59 232 85 386 91 122 5 144 3 210 -17 210 -63 345 -165 609
-458 163 -181 180 -212 180 -338 0 -32 7 -80 14 -106 11 -36 13 -67 6 -140
-26 -266 -144 -491 -357 -681 -42 -37 -43 -37 -128 -37 -67 0 -87 -3 -91 -15
-17 -43 -42 -42 1139 -51 617 -4 1428 -8 1802 -8 703 0 731 2 723 40 -3 12
-141 15 -998 21 -547 3 -1314 5 -1705 4 l-710 -2 76 78 c128 134 197 244 252
411 19 57 37 105 40 108 10 10 298 -26 397 -50 162 -39 344 -56 720 -66 360
-10 401 -8 521 30 110 36 199 133 199 219 0 54 -19 89 -75 139 -45 39 -45 40
-45 103 0 260 108 746 222 999 40 89 83 269 101 421 15 118 14 129 -3 193 -24
86 -58 144 -112 191 -52 45 -143 90 -215 106 -51 12 -54 14 -64 53 -25 99 -78
205 -120 240 -121 102 -249 120 -714 100 -328 -15 -518 -33 -725 -70 -74 -13
-250 -42 -390 -64 -140 -22 -347 -56 -459 -75 -112 -19 -206 -33 -208 -31 -2
2 21 43 50 92 213 350 364 769 423 1179 26 176 24 449 -3 575 -63 290 -228
509 -503 665 -142 81 -411 170 -575 190 l-60 8 68 19 c84 23 130 46 184 92 51
44 103 144 103 198 0 114 -119 210 -329 266 -84 22 -121 26 -289 29 l-194 3
-48 54 c-53 57 -132 104 -220 131 -85 26 -272 28 -410 6z m382 -57 c32 -7 76
-23 99 -34 40 -21 129 -96 129 -109 0 -4 -28 -13 -62 -20 -96 -19 -257 -75
-347 -121 -92 -46 -144 -89 -198 -164 -61 -84 -228 -290 -288 -355 -45 -48
-77 -70 -153 -108 -131 -64 -229 -132 -296 -203 l-56 -61 -26 58 c-41 92 -74
236 -74 322 0 62 7 97 39 191 22 63 37 118 35 122 -8 12 77 127 129 175 161
149 390 258 627 299 200 34 326 37 442 8z m618 -194 c118 -15 203 -37 285 -74
139 -64 179 -149 119 -253 -73 -126 -245 -187 -424 -149 -157 33 -488 16 -756
-39 -130 -27 -393 -99 -426 -116 -35 -19 -33 0 4 39 41 43 172 206 248 309 71
97 132 136 320 206 194 72 430 101 630 77z m-2790 -110 c-12 -16 -23 -30 -25
-30 -2 0 1 14 6 30 6 17 18 30 26 30 11 0 10 -7 -7 -30z m-413 -366 c-3 -3
-12 -4 -19 -1 -8 3 -5 6 6 6 11 1 17 -2 13 -5z m-127 -26 c-252 -57 -353 -78
-357 -75 -8 9 381 96 422 95 11 0 -18 -9 -65 -20z m3277 -25 c25 -6 67 -69 84
-125 6 -18 10 -72 9 -119 -1 -95 13 -144 62 -216 22 -33 35 -76 58 -190 61
-298 74 -431 75 -743 0 -324 8 -290 -101 -457 -99 -153 -310 -348 -405 -373
-55 -15 -108 -3 -282 66 -159 62 -321 144 -444 224 l-83 53 0 82 0 82 -44 13
c-24 7 -66 10 -94 9 l-49 -4 -12 73 c-6 40 -20 95 -32 122 -25 58 -93 125
-137 135 -30 6 -33 12 -58 93 -30 102 -113 368 -120 386 -3 9 10 17 39 24 55
14 77 37 56 57 -11 11 -22 12 -55 3 -23 -6 -49 -8 -58 -5 -27 11 -48 76 -50
155 -1 86 9 98 62 76 26 -11 38 -11 48 -3 23 19 16 36 -20 53 -45 21 -88 20
-113 -3 -24 -22 -33 -18 -33 15 0 30 96 134 169 184 93 63 190 106 377 169
288 97 521 149 761 171 98 9 347 5 390 -7z m-3650 -59 c-3 -3 -12 -4 -19 -1
-8 3 -5 6 6 6 11 1 17 -2 13 -5z m3811 -10 l23 -7 -22 -15 c-18 -12 -23 -13
-30 -1 -18 28 -12 33 29 23z m680 -220 c138 -88 262 -209 322 -316 24 -43 24
-43 -41 22 -132 132 -295 287 -324 308 -49 35 -19 25 43 -14z m-2652 -127 c17
-40 50 -112 72 -162 65 -145 67 -179 33 -401 -16 -104 -35 -233 -42 -286 l-12
-98 -26 8 c-14 4 -56 7 -93 6 -48 -1 -68 3 -68 11 0 7 4 57 10 111 12 118 34
415 51 679 11 170 18 205 39 205 3 -1 19 -33 36 -73z m-120 -9 c-4 -40 -13
-179 -22 -308 -15 -234 -39 -522 -50 -612 -5 -34 -15 -54 -38 -77 l-31 -31
-49 25 c-60 30 -168 35 -219 9 -81 -41 -137 -135 -137 -229 l0 -45 -170 0
-170 0 -1 -272 c0 -150 -3 -363 -5 -473 l-5 -200 -147 2 c-197 4 -689 43
-1490 119 -59 6 -75 11 -84 27 -26 49 26 225 127 433 35 73 85 196 111 275 45
139 181 508 299 809 69 178 159 353 197 386 52 43 325 120 548 153 333 50 712
77 1083 80 l259 1 -6 -72z m2217 -152 c35 -23 113 -46 195 -58 62 -9 82 -16
102 -38 37 -39 168 -229 239 -345 57 -93 62 -106 72 -189 13 -108 0 -261 -36
-422 -14 -59 -26 -109 -28 -110 -2 -2 -16 15 -30 37 -19 29 -27 54 -27 85 0
44 -24 83 -52 85 -7 1 -31 3 -53 6 -110 13 -145 -4 -204 -96 -26 -40 -40 -52
-67 -57 -59 -11 -60 -9 -51 117 15 210 -10 552 -59 819 -14 74 -27 145 -31
158 -6 26 -1 27 30 8z m-1843 -545 c73 -238 75 -250 32 -251 -20 0 -85 -36
-105 -58 -19 -21 -19 -21 -49 14 -34 39 -35 9 8 309 25 179 34 228 39 223 2
-2 36 -108 75 -237z m2527 -295 c-7 -152 -32 -281 -86 -444 -36 -108 -130
-336 -137 -330 -1 2 24 82 56 178 94 278 149 535 150 695 1 56 3 66 12 51 7
-13 9 -62 5 -150z m-2711 -21 c52 -39 58 -58 39 -114 -11 -34 -15 -78 -13
-145 2 -83 -1 -99 -18 -123 -47 -62 -118 -87 -187 -64 -52 17 -113 83 -132
142 -36 106 -3 249 70 305 63 48 177 48 241 -1z m373 -3 c38 -28 80 -117 89
-189 9 -69 -1 -88 -12 -22 -6 34 -10 40 -29 37 -18 -2 -22 -9 -20 -33 8 -136
9 -130 -20 -168 -33 -43 -93 -77 -137 -77 -58 0 -106 34 -137 97 -37 76 -40
194 -6 259 26 49 83 102 121 110 15 3 32 7 37 10 22 8 90 -6 114 -24z m-796
-26 c59 -26 69 -38 57 -70 -12 -33 -15 -132 -5 -198 7 -44 5 -50 -22 -77 -36
-36 -121 -56 -172 -41 -144 41 -160 307 -23 380 44 23 119 26 165 6z m2742
-131 c-28 -28 -60 -74 -80 -118 -69 -145 -185 -654 -185 -811 0 -86 23 -159
61 -190 36 -30 18 -35 -27 -7 -74 45 -103 196 -85 432 18 223 70 387 184 580
61 105 114 159 153 159 25 0 24 -2 -21 -45z m143 29 c16 -11 22 -25 22 -55 0
-50 -19 -87 -65 -128 -42 -36 -98 -43 -114 -13 -21 39 52 182 103 202 29 12
29 12 54 -6z m58 -151 c7 -10 14 -34 14 -54 0 -57 -68 -109 -143 -109 -43 0
-59 13 -55 41 2 17 11 25 33 29 43 9 81 37 106 76 24 39 27 40 45 17z m-376 3
c0 -2 -11 -23 -24 -46 l-24 -43 -11 39 c-15 54 -15 54 24 54 19 0 35 -2 35 -4z
m149 -84 c6 -2 11 -21 11 -42 0 -21 4 -42 10 -45 5 -3 -1 -29 -16 -62 -38 -87
-42 -90 -76 -43 l-29 39 20 76 c12 42 29 93 38 113 l16 37 8 -35 c4 -19 12
-36 18 -38z m-3102 51 l83 -6 21 -43 c35 -73 101 -114 185 -114 46 0 121 25
158 54 l33 25 34 -35 c94 -97 253 -99 334 -3 l25 30 30 -34 c65 -74 166 -89
255 -38 53 30 99 86 110 133 6 25 10 27 78 30 40 2 84 1 100 -1 l27 -3 0 -177
0 -176 -49 -18 c-57 -20 -102 -61 -134 -121 -17 -32 -22 -58 -22 -121 0 -70 4
-87 30 -134 31 -57 91 -104 146 -116 l30 -7 -3 -136 -3 -137 -821 -3 -821 -2
-19 47 c-18 45 -19 82 -19 573 0 289 1 528 3 533 4 9 99 9 209 0z m2839 -81
c24 -16 24 -72 -1 -149 -14 -42 -32 -116 -41 -164 l-16 -88 -77 -82 c-75 -81
-146 -136 -228 -178 -55 -27 -63 -27 -63 7 -1 33 -38 128 -68 169 l-22 30 46
18 c108 41 313 230 404 373 47 75 49 76 66 64z m501 -58 c-15 -49 -67 -87
-120 -88 -40 -1 -42 1 -45 30 -3 31 -2 31 47 36 32 3 65 15 88 31 21 14 39 26
40 26 0 1 -4 -15 -10 -35z m-1732 -110 c99 -65 348 -184 490 -235 66 -24 122
-44 124 -46 2 -1 -16 -24 -41 -51 -24 -28 -59 -77 -77 -111 -18 -34 -36 -59
-41 -56 -5 3 -49 36 -98 73 -50 37 -132 92 -183 122 -51 30 -114 78 -141 107
-27 28 -62 56 -78 63 -19 8 -30 21 -34 42 -8 43 -8 138 2 138 4 0 39 -21 77
-46z m1586 -14 c10 0 19 -5 19 -11 0 -8 -15 -10 -47 -5 -25 3 -48 8 -50 10 -2
2 2 16 9 31 l12 27 19 -26 c10 -14 27 -26 38 -26z m106 8 c-3 -8 -6 -5 -6 6
-1 11 2 17 5 13 3 -3 4 -12 1 -19z m-286 -19 c9 -17 7 -25 -9 -42 -11 -12 -27
-35 -36 -52 -10 -16 -15 -23 -13 -15 2 8 10 41 17 73 14 61 23 69 41 36z m192
-49 c24 -7 37 -17 37 -28 0 -36 -41 -175 -75 -259 -38 -92 -55 -120 -55 -90 0
33 -40 95 -84 132 -54 44 -63 76 -42 148 14 50 51 96 86 110 18 8 82 1 133
-13z m-1647 -121 c20 -12 43 -41 60 -75 65 -133 -9 -294 -137 -294 -94 0 -159
80 -159 196 0 73 30 138 80 172 43 29 110 30 156 1z m1407 -111 l25 -36 -44
-66 c-25 -36 -46 -66 -48 -66 -4 0 23 181 29 199 6 16 7 16 38 -31z m-1126
-99 c74 -51 162 -117 194 -147 50 -46 60 -51 65 -36 16 53 89 184 124 224 32
38 42 43 57 34 30 -17 74 -116 79 -180 3 -33 7 -64 9 -71 7 -22 167 49 248
111 26 20 47 31 47 25 0 -17 -74 -172 -132 -276 l-51 -93 -111 0 c-244 1 -744
28 -823 45 -21 5 -23 11 -23 75 l0 70 38 19 c50 25 106 88 123 137 7 22 13 65
13 96 1 32 2 58 4 58 2 0 64 -41 139 -91z m957 -223 c11 -38 30 -72 55 -99 33
-35 45 -41 80 -41 22 -1 41 -4 41 -7 0 -22 -44 -29 -229 -35 l-203 -7 47 84
c68 122 110 215 139 309 15 46 30 88 34 94 4 6 10 -45 13 -114 3 -69 14 -151
23 -184z m208 94 c-26 -84 -53 -155 -60 -158 -24 -8 -67 151 -45 167 5 3 35
44 67 89 50 71 61 82 72 70 12 -11 6 -37 -34 -168z m82 69 c10 -54 7 -73 -27
-144 -33 -69 -67 -112 -67 -85 0 22 74 260 81 260 4 0 9 -14 13 -31z m-7260
-36 c10 -24 -4 -152 -21 -190 -7 -18 -13 -62 -13 -98 0 -47 -7 -83 -27 -132
-33 -82 -95 -148 -290 -306 l-133 -106 0 67 c0 302 116 586 288 704 49 34 146
77 173 78 9 0 20 -8 23 -17z m3904 -230 l3 -31 -38 19 c-21 10 -74 25 -118 33
l-80 15 115 -2 115 -2 3 -32z m3951 -17 c-6 -6 -180 -36 -199 -35 -8 1 23 9
70 19 83 18 138 24 129 16z m2015 -123 c38 -77 59 -178 52 -250 -8 -77 -38
-175 -74 -245 -36 -70 -49 -71 -57 -6 -9 74 0 386 13 423 6 17 13 51 17 78 3
26 10 47 15 47 6 0 20 -21 34 -47z m400 -71 c3 -4 -8 -13 -25 -19 -26 -10 -29
-9 -29 8 0 13 7 19 24 19 14 0 27 -4 30 -8z m206 -732 c-13 -45 -18 -50 -52
-50 l-32 0 40 39 c48 47 55 49 44 11z m-65 -165 c-73 -193 -131 -410 -160
-595 -9 -58 -20 -123 -25 -145 -13 -59 -3 51 16 185 26 172 133 566 166 608
24 29 25 7 3 -53z m-65 53 c0 -2 -16 -50 -35 -108 -45 -131 -80 -270 -110
-425 -29 -149 -32 -110 -5 49 27 155 101 438 125 477 5 8 25 13 25 7z m-104
-65 c-47 -155 -94 -359 -109 -468 -2 -16 -5 8 -5 55 -3 151 34 331 83 406 18
28 39 32 31 7z m-4771 -983 c28 -4 -56 -5 -185 -2 -129 2 -237 6 -239 8 -8 8
375 2 424 -6z m-1895 -54 c40 -12 96 -16 210 -16 140 0 494 21 595 36 38 5
782 -15 1295 -36 130 -5 280 -16 335 -25 55 -9 138 -15 185 -14 47 1 98 -3
113 -10 39 -15 97 -14 131 4 15 8 31 15 35 15 4 0 12 -48 19 -108 27 -247 123
-455 289 -631 l68 -71 -300 -2 c-165 -1 -1018 -2 -1896 -2 l-1597 -1 61 64
c184 197 296 478 297 744 l0 79 53 -5 c28 -3 77 -12 107 -21z m6681 -35 c45
-28 79 -79 79 -118 0 -13 -5 -10 -19 12 -10 17 -42 54 -72 83 -60 58 -56 66
12 23z m-1601 -175 l35 -28 -34 6 c-18 3 -49 6 -67 6 -30 0 -34 3 -34 28 0 15
3 36 6 48 5 20 6 20 32 -5 15 -15 43 -39 62 -55z"/>
<path d="M7641 5667 c-22 -22 -10 -34 64 -71 42 -21 83 -48 91 -62 18 -27 52
-32 61 -8 16 43 -183 174 -216 141z"/>
<path d="M6948 5568 c-41 -44 -72 -94 -88 -142 -10 -33 -10 -40 3 -54 13 -13
19 -13 31 -2 9 7 16 19 16 27 0 23 30 75 72 126 33 39 38 50 28 62 -18 22 -28
19 -62 -17z"/>
<path d="M7647 5530 c-56 -44 -24 -134 48 -134 93 0 102 132 10 150 -22 4 -38
0 -58 -16z m71 -57 c5 -17 -26 -29 -40 -15 -6 6 -7 15 -3 22 9 14 37 9 43 -7z"/>
<path d="M6992 5463 c-7 -3 -19 -18 -28 -35 -41 -79 70 -151 125 -82 28 35 26
69 -4 99 -23 24 -61 31 -93 18z m55 -59 c8 -21 -13 -42 -28 -27 -13 13 -5 43
11 43 6 0 13 -7 17 -16z"/>
<path d="M7410 5315 c0 -70 25 -114 78 -137 41 -18 51 -19 145 -7 56 7 119 9
140 5 50 -9 113 -72 123 -121 14 -78 -56 -185 -158 -240 -97 -53 -274 -44
-293 15 -6 20 -32 33 -46 24 -21 -12 -8 -53 26 -83 45 -39 71 -46 170 -46 69
1 90 5 148 33 82 38 167 120 192 186 36 94 6 191 -76 252 -55 40 -99 47 -213
33 -148 -18 -169 -9 -184 84 -6 33 -12 43 -30 45 -20 3 -22 -1 -22 -43z"/>
<path d="M6335 5200 c-3 -5 -1 -19 5 -30 6 -11 8 -36 4 -55 -5 -28 -3 -36 11
-42 36 -13 61 69 35 118 -11 20 -45 26 -55 9z"/>
<path d="M6829 5006 c-54 -19 -101 -56 -95 -73 3 -8 6 -17 6 -19 0 -11 35 -2
60 16 16 11 43 23 60 27 l32 6 -20 -39 c-56 -110 -86 -276 -63 -347 23 -67
116 -129 258 -169 61 -17 105 -22 203 -22 123 -1 126 0 215 38 134 57 375 174
375 181 0 3 -4 14 -10 24 -9 17 -14 17 -89 -10 -263 -93 -505 -38 -716 162
-98 93 -155 202 -80 153 24 -16 27 -16 42 -1 15 15 15 18 -1 36 -43 47 -110
61 -177 37z m146 -235 c131 -143 350 -250 519 -252 l61 -1 -50 -24 c-43 -21
-59 -24 -110 -18 -89 9 -202 45 -276 86 -121 68 -242 220 -223 280 l7 23 16
-25 c9 -14 34 -45 56 -69z m-4 -163 c68 -68 152 -118 257 -152 28 -10 52 -20
52 -22 0 -8 -114 8 -192 27 -91 21 -151 50 -195 92 -32 30 -33 34 -32 106 l0
76 22 -30 c12 -16 51 -60 88 -97z"/>
<path d="M3445 1544 c-133 -21 -255 -84 -356 -184 -208 -207 -248 -525 -97
-777 79 -133 237 -250 389 -289 83 -22 226 -22 309 0 224 57 409 240 465 461
19 74 19 243 1 312 -73 276 -311 468 -591 478 -49 2 -103 1 -120 -1z m127 -29
c2 -3 -8 -92 -23 -197 -16 -106 -29 -198 -29 -204 0 -6 -18 -16 -39 -22 -21
-7 -57 -31 -80 -53 l-40 -41 -198 47 c-109 26 -200 49 -202 51 -2 2 10 33 27
69 76 162 224 287 388 329 87 22 184 32 196 21z m163 -33 c77 -27 185 -91 215
-127 16 -19 2 -34 -216 -231 l-71 -64 -54 22 c-30 13 -55 23 -56 23 -2 1 42
312 52 373 7 41 23 41 130 4z m294 -217 c98 -137 137 -340 96 -500 -23 -88
-73 -188 -91 -181 -8 3 -86 58 -173 121 l-158 116 14 42 c11 33 12 50 3 86 -6
25 -16 51 -22 58 -6 7 -8 19 -5 27 6 15 287 276 298 276 3 0 20 -20 38 -45z
m-436 -209 c18 -7 45 -28 61 -45 40 -42 48 -129 17 -179 -65 -102 -223 -96
-272 12 -33 74 -18 143 42 189 52 38 99 46 152 23z m-420 -46 l177 -42 0 -47
c0 -25 3 -56 6 -67 5 -19 -14 -32 -176 -119 -100 -53 -183 -95 -185 -93 -2 1
-12 26 -23 53 -29 74 -45 189 -38 266 8 88 14 102 40 96 11 -3 101 -24 199
-47z m238 -236 c15 -15 51 -34 80 -43 l52 -18 44 -199 c23 -109 43 -200 43
-201 0 -2 -39 -3 -87 -3 -178 0 -309 55 -434 180 -72 72 -103 120 -83 127 5 2
83 44 174 93 91 49 169 90 174 90 6 0 22 -12 37 -26z m440 -101 c88 -64 162
-120 165 -124 7 -13 -90 -106 -155 -148 -58 -37 -187 -89 -197 -79 -6 6 -84
365 -84 387 0 11 15 25 40 36 22 10 45 24 51 32 6 7 13 13 16 13 2 0 76 -53
164 -117z"/>
<path d="M8586 1494 c-98 -24 -196 -77 -273 -149 -89 -82 -139 -156 -177 -265
-27 -77 -30 -97 -30 -205 0 -105 3 -130 28 -200 72 -209 249 -371 461 -421 92
-21 255 -14 338 15 196 69 345 216 407 401 98 292 -31 623 -299 764 -138 72
-311 95 -455 60z m188 -41 c-7 -39 -54 -373 -54 -384 0 -5 -7 -9 -15 -9 -28 0
-92 -39 -117 -69 l-23 -30 -195 46 c-107 25 -198 49 -202 52 -5 4 7 38 26 76
100 208 304 341 528 344 57 1 57 1 52 -26z m159 -6 c36 -13 85 -36 111 -51 49
-29 116 -83 116 -95 0 -3 -67 -68 -149 -143 l-149 -137 -38 19 c-21 11 -46 20
-56 20 -10 0 -18 1 -18 3 0 4 50 343 55 375 5 27 10 32 35 32 16 0 58 -10 93
-23z m290 -211 c42 -54 85 -147 102 -217 17 -75 19 -196 4 -271 -11 -53 -77
-208 -88 -208 -3 0 -78 54 -166 119 -138 101 -160 121 -157 142 9 81 5 127
-15 161 l-21 35 150 136 c82 76 152 137 157 137 5 0 20 -15 34 -34z m-431
-215 c30 -11 72 -50 87 -78 19 -38 14 -116 -11 -153 -47 -69 -144 -91 -208
-47 -55 37 -75 72 -75 132 0 60 20 95 75 133 35 23 91 29 132 13z m-424 -46
l187 -46 1 -67 1 -68 -179 -96 -180 -97 -19 45 c-33 75 -52 181 -45 264 6 88
13 110 32 110 8 0 99 -20 202 -45z m289 -269 c18 -9 43 -16 57 -16 18 0 27 -7
31 -22 27 -112 82 -385 78 -390 -7 -13 -144 -9 -213 6 -86 19 -161 54 -237
110 -59 43 -153 149 -153 172 0 6 80 54 178 106 l177 96 25 -23 c14 -12 39
-30 57 -39z m403 -76 c85 -62 157 -115 160 -117 3 -3 -27 -35 -65 -71 -74 -71
-156 -120 -242 -145 l-51 -15 -16 71 c-9 40 -29 132 -44 204 l-29 133 32 10
c18 6 42 22 55 35 14 15 27 21 34 16 6 -5 81 -59 166 -121z"/>
</g>
</svg>
